<svg xmlns="http://www.w3.org/2000/svg" width="200px" height="63px" version="1.0" viewBox="0 0 199.77 62.91">
    <defs>
        <style type="text/css">

            .str0 {stroke:#40C3D7;stroke-width:0.47;stroke-miterlimit:22.9256}
            .fil01 {fill:none}
            .fil22 {fill:#40C3D7}
            .fil11 {fill:#92278F}
            .fil33 {fill:#FEFEFE;fill-rule:nonzero}
            .fil44 {fill:#FF6600;fill-rule:nonzero}

        </style>
        <clipPath id="id0">
            <path d="M94.05 40.88l105.72 0 0 22.03 -105.72 0 0 -22.03z"></path>
        </clipPath>
    </defs>
    <g>
        <metadata></metadata>
        <path class="fil01 str0" d="M97.43 53.75l-46.67 0 -11.76 -5.3 -23.4 0m81.83 -4.31l-46.67 0 -11.76 -5.3 -35.08 0m93.51 10.01l-46.67 0 -11.76 -5.3 -29.13 0m3.84 2.98c1.02,0 1.85,0.82 1.85,1.85 0,1.02 -0.83,1.84 -1.85,1.84 -1.02,0 -1.84,-0.82 -1.84,-1.84 0,-1.03 0.82,-1.85 1.84,-1.85zm-11.63 -9.57c1.02,0 1.85,0.83 1.85,1.85l-0.01 0.03 0 0.01c-0.02,1 -0.83,1.81 -1.84,1.81 -1.02,0 -1.85,-0.83 -1.85,-1.85 0,-1.02 0.83,-1.85 1.85,-1.85zm5.95 4.77c1.01,0 1.83,0.81 1.84,1.82l0 0.01 0 0.01c0,1.02 -0.82,1.85 -1.84,1.85 -1.02,0 -1.85,-0.83 -1.85,-1.85 0,-1.02 0.83,-1.84 1.85,-1.84z"></path>
        <path class="fil11" d="M10.07 11.47c-0.28,-0.16 -0.71,-0.38 -1.19,-0.75 -0.49,-0.36 -1.03,-0.88 -1.41,-1.35 -0.37,-0.47 -0.58,-0.89 -0.77,-1.38 -0.19,-0.48 -0.35,-1.02 -0.43,-1.51 -0.08,-0.48 -0.08,-0.91 -0.04,-1.34 0.04,-0.42 0.13,-0.85 0.3,-1.29 0.17,-0.44 0.43,-0.89 0.72,-1.29 0.3,-0.41 0.65,-0.76 0.99,-1.07 0.35,-0.3 0.71,-0.55 1.03,-0.74 0.31,-0.19 0.58,-0.32 0.82,-0.41 0.23,-0.1 0.42,-0.15 0.54,-0.2 0.12,-0.05 0.15,-0.1 0.78,-0.12 0.63,-0.02 1.85,-0.02 4.71,-0.02 2.86,0 7.36,0 9.67,0 2.31,0 2.43,0 2.6,0.04 0.17,0.04 0.38,0.11 0.7,0.26 0.32,0.15 0.76,0.38 1.25,0.72 0.5,0.35 1.06,0.81 1.5,1.25 0.43,0.44 0.74,0.85 1.08,1.31 0.34,0.45 0.72,0.95 1.07,1.57 0.35,0.62 0.69,1.35 0.96,2.18 0.28,0.82 0.5,1.73 0.66,2.59 0.16,0.87 0.26,1.69 0.33,2.53 0.07,0.83 0.12,1.68 0.15,2.59 0.02,0.91 0.03,1.88 0.04,2.5 0,0.63 0,0.91 -0.01,1.05 -0.01,0.15 -0.04,0.15 -0.09,0.03 -0.06,-0.12 -0.16,-0.38 -0.44,-0.85 -0.29,-0.46 -0.77,-1.14 -1.27,-1.8 -0.5,-0.67 -1.01,-1.32 -1.49,-1.85 -0.49,-0.53 -0.95,-0.93 -1.43,-1.27 -0.48,-0.33 -0.99,-0.61 -1.46,-0.79 -0.48,-0.18 -0.93,-0.27 -2.14,-0.32 -1.2,-0.05 -3.16,-0.05 -6.04,-0.04 -2.89,0.01 -6.7,0.02 -8.71,0.04 -2.02,0.02 -2.23,0.05 -2.4,0.01 -0.17,-0.03 -0.3,-0.13 -0.58,-0.28zm16.22 5.39c0.28,0.16 0.71,0.38 1.19,0.74 0.49,0.37 1.03,0.89 1.41,1.36 0.38,0.47 0.59,0.89 0.77,1.37 0.19,0.49 0.35,1.03 0.43,1.52 0.09,0.48 0.09,0.91 0.04,1.34 -0.04,0.42 -0.12,0.85 -0.3,1.29 -0.17,0.44 -0.42,0.89 -0.72,1.29 -0.3,0.41 -0.64,0.76 -0.99,1.07 -0.35,0.3 -0.71,0.55 -1.02,0.74 -0.32,0.19 -0.59,0.32 -0.82,0.41 -0.24,0.1 -0.43,0.15 -0.55,0.2 -0.11,0.05 -0.15,0.09 -0.78,0.12 -0.63,0.02 -1.85,0.02 -4.71,0.02 -2.86,0 -7.35,0 -9.67,0 -2.31,0 -2.43,0 -2.6,-0.04 -0.16,-0.04 -0.37,-0.11 -0.7,-0.26 -0.32,-0.15 -0.75,-0.38 -1.25,-0.72 -0.5,-0.35 -1.06,-0.82 -1.49,-1.25 -0.44,-0.44 -0.75,-0.85 -1.09,-1.31 -0.34,-0.45 -0.71,-0.95 -1.07,-1.57 -0.35,-0.62 -0.69,-1.35 -0.96,-2.18 -0.28,-0.82 -0.49,-1.73 -0.65,-2.6 -0.16,-0.86 -0.26,-1.68 -0.34,-2.52 -0.07,-0.84 -0.12,-1.68 -0.14,-2.59 -0.03,-0.91 -0.04,-1.88 -0.04,-2.51 -0.01,-0.62 -0.01,-0.9 0,-1.04 0.02,-0.15 0.04,-0.16 0.1,-0.03 0.06,0.12 0.15,0.38 0.44,0.85 0.28,0.46 0.76,1.14 1.26,1.8 0.5,0.67 1.01,1.32 1.5,1.85 0.48,0.52 0.94,0.93 1.42,1.27 0.48,0.33 0.99,0.61 1.47,0.79 0.47,0.18 0.93,0.27 2.13,0.32 1.2,0.05 3.16,0.05 6.05,0.04 2.88,-0.01 6.7,-0.02 8.71,-0.04 2.01,-0.02 2.22,-0.05 2.39,-0.01 0.17,0.03 0.3,0.13 0.58,0.28z"></path>
        <path class="fil22" d="M95.73 39.08l0 14.28c0,4.46 3.66,8.11 8.11,8.11l94.25 0 0 -14.28c0,-4.46 -3.65,-8.11 -8.11,-8.11l-94.25 0z"></path>
        <path class="fil33" d="M105.2 44.9l3.33 0 0 10.74c-2.88,0 -3.33,-0.01 -3.33,-2.37l0 -8.37zm4.25 0l10.09 0 0 2.66 -3.38 0 0 8.08c-2.73,0 -3.32,-0.18 -3.32,-2.41l0 -5.67 -3.39 0 0 -2.66zm9.11 5.67l4.33 0 0 2.31 -4.33 0 0 -2.31zm4.48 1.52l3.16 -0.2c0.07,0.51 0.21,0.91 0.42,1.18 0.34,0.43 0.83,0.65 1.46,0.65 0.48,0 0.84,-0.11 1.1,-0.34 0.25,-0.22 0.38,-0.48 0.38,-0.77 0,-0.28 -0.12,-0.53 -0.36,-0.75 -0.25,-0.22 -0.81,-0.43 -1.7,-0.62 -1.46,-0.33 -2.5,-0.76 -3.12,-1.3 -0.62,-0.55 -0.94,-1.24 -0.94,-2.08 0,-0.55 0.16,-1.07 0.49,-1.56 0.31,-0.49 0.8,-0.88 1.44,-1.16 0.64,-0.28 1.52,-0.42 2.64,-0.42 1.37,0 2.42,0.26 3.14,0.77 0.72,0.51 1.15,1.32 1.28,2.43l-3.12 0.18c-0.09,-0.48 -0.26,-0.83 -0.53,-1.05 -0.26,-0.22 -0.63,-0.33 -1.1,-0.33 -0.39,0 -0.68,0.08 -0.87,0.25 -0.2,0.16 -0.29,0.36 -0.29,0.59 0,0.17 0.08,0.33 0.24,0.46 0.15,0.15 0.52,0.28 1.11,0.4 1.45,0.31 2.49,0.63 3.12,0.95 0.62,0.32 1.08,0.71 1.37,1.19 0.28,0.47 0.43,1 0.43,1.59 0,0.69 -0.2,1.32 -0.58,1.9 -0.38,0.59 -0.91,1.03 -1.59,1.33 -0.69,0.3 -1.55,0.45 -2.59,0.45 -1.82,0 -3.09,-0.35 -3.79,-1.06 -0.71,-0.7 -1.11,-1.59 -1.2,-2.68zm17.87 -0.84l2.91 0.88c-0.2,0.82 -0.51,1.5 -0.93,2.05 -0.42,0.55 -0.94,0.96 -1.56,1.24 -0.63,0.28 -1.42,0.41 -2.38,0.41 -1.17,0 -2.12,-0.17 -2.86,-0.5 -0.74,-0.34 -1.38,-0.94 -1.92,-1.8 -0.53,-0.85 -0.8,-1.95 -0.8,-3.28 0,-1.78 0.47,-3.14 1.42,-4.1 0.94,-0.95 2.28,-1.43 4.01,-1.43 1.35,0 2.41,0.27 3.19,0.82 0.77,0.55 1.35,1.39 1.72,2.52l-2.93 0.65c-0.1,-0.32 -0.21,-0.56 -0.32,-0.72 -0.19,-0.25 -0.41,-0.44 -0.68,-0.58 -0.27,-0.14 -0.57,-0.21 -0.9,-0.21 -0.75,0 -1.33,0.31 -1.73,0.91 -0.3,0.45 -0.46,1.16 -0.46,2.12 0,1.19 0.19,2.01 0.55,2.45 0.36,0.44 0.87,0.66 1.52,0.66 0.63,0 1.11,-0.17 1.44,-0.53 0.32,-0.36 0.56,-0.88 0.71,-1.56zm3.83 -6.35l3.32 0 0 3.76 3.63 0 0 -3.76 3.33 0 0 10.74 -3.33 0 0 -4.34 -3.63 0 0 4.34 -3.32 0 0 -10.74zm11.37 5.38c0,-1.75 0.49,-3.12 1.46,-4.09 0.98,-0.98 2.34,-1.47 4.08,-1.47 1.79,0 3.17,0.48 4.14,1.44 0.96,0.96 1.45,2.3 1.45,4.03 0,1.26 -0.22,2.29 -0.64,3.09 -0.42,0.8 -1.03,1.43 -1.83,1.88 -0.8,0.44 -1.79,0.67 -2.99,0.67 -1.21,0 -2.21,-0.2 -3,-0.58 -0.8,-0.39 -1.44,-1 -1.93,-1.83 -0.5,-0.84 -0.74,-1.89 -0.74,-3.14zm3.32 0.01c0,1.09 0.2,1.87 0.6,2.34 0.4,0.48 0.95,0.71 1.65,0.71 0.71,0 1.26,-0.23 1.65,-0.69 0.39,-0.47 0.59,-1.3 0.59,-2.5 0,-1.01 -0.21,-1.75 -0.61,-2.22 -0.41,-0.46 -0.96,-0.7 -1.67,-0.7 -0.66,0 -1.2,0.24 -1.61,0.71 -0.4,0.48 -0.6,1.26 -0.6,2.35zm8.47 -0.01c0,-1.75 0.49,-3.12 1.47,-4.09 0.98,-0.98 2.34,-1.47 4.08,-1.47 1.79,0 3.17,0.48 4.13,1.44 0.97,0.96 1.45,2.3 1.45,4.03 0,1.26 -0.21,2.29 -0.63,3.09 -0.42,0.8 -1.03,1.43 -1.83,1.88 -0.8,0.44 -1.79,0.67 -2.99,0.67 -1.21,0 -2.21,-0.2 -3.01,-0.58 -0.79,-0.39 -1.43,-1 -1.93,-1.83 -0.49,-0.84 -0.74,-1.89 -0.74,-3.14zm3.33 0.01c0,1.09 0.2,1.87 0.6,2.34 0.4,0.48 0.95,0.71 1.64,0.71 0.72,0 1.27,-0.23 1.66,-0.69 0.39,-0.47 0.59,-1.3 0.59,-2.5 0,-1.01 -0.21,-1.75 -0.62,-2.22 -0.4,-0.46 -0.96,-0.7 -1.66,-0.7 -0.66,0 -1.2,0.24 -1.61,0.71 -0.4,0.48 -0.6,1.26 -0.6,2.35zm8.89 -5.39l3.32 0 0 8.1 5.18 0 0 2.64 -8.5 0 0 -10.74z"></path>
        <path class="fil44" d="M50.56 18.98l5.38 -0.54c0.33,1.8 0.98,3.12 1.96,3.97 0.99,0.84 2.32,1.26 3.99,1.26 1.77,0 3.11,-0.37 4,-1.12 0.9,-0.75 1.35,-1.63 1.35,-2.64 0,-0.65 -0.19,-1.19 -0.56,-1.65 -0.38,-0.45 -1.04,-0.85 -1.98,-1.18 -0.64,-0.23 -2.11,-0.62 -4.4,-1.2 -2.94,-0.73 -5.01,-1.64 -6.2,-2.71 -1.68,-1.51 -2.51,-3.35 -2.51,-5.52 0,-1.39 0.39,-2.7 1.18,-3.92 0.79,-1.21 1.92,-2.14 3.4,-2.77 1.48,-0.64 3.27,-0.96 5.37,-0.96 3.41,0 5.99,0.76 7.71,2.28 1.73,1.52 2.64,3.54 2.73,6.08l-5.54 0.19c-0.23,-1.41 -0.74,-2.42 -1.51,-3.04 -0.77,-0.61 -1.92,-0.93 -3.46,-0.93 -1.6,0 -2.84,0.33 -3.74,1 -0.58,0.42 -0.87,0.99 -0.87,1.7 0,0.65 0.27,1.2 0.82,1.66 0.69,0.59 2.38,1.2 5.06,1.84 2.68,0.63 4.66,1.29 5.94,1.97 1.28,0.68 2.29,1.6 3.01,2.78 0.73,1.18 1.09,2.63 1.09,4.35 0,1.57 -0.43,3.04 -1.31,4.4 -0.87,1.37 -2.09,2.39 -3.69,3.05 -1.59,0.67 -3.57,1 -5.95,1 -3.45,0 -6.1,-0.79 -7.96,-2.39 -1.85,-1.59 -2.95,-3.92 -3.31,-6.96zm34.09 8.85l0 -11.5 -10.02 -15.83 6.47 0 6.47 10.82 6.29 -10.82 6.35 0 -10.02 15.87 0 11.46 -5.54 0zm18.29 0l0 -27.33 5.36 0 11.25 18.32 0 -18.32 5.11 0 0 27.33 -5.52 0 -11.08 -17.97 0 17.97 -5.12 0zm27.57 0l0 -27.33 20.24 0 0 4.62 -14.7 0 0 6.07 13.67 0 0 4.62 -13.67 0 0 7.4 15.23 0 0 4.62 -20.77 0zm25.47 0l0 -27.33 18.78 0 0 4.62 -13.25 0 0 6.49 11.46 0 0 4.62 -11.46 0 0 11.6 -5.53 0zm23.32 0l0 -27.33 18.78 0 0 4.62 -13.24 0 0 6.49 11.45 0 0 4.62 -11.45 0 0 11.6 -5.54 0z"></path>
    </g>
</svg>